<svg id="Camada_2" data-name="Camada 2" xmlns="http://www.w3.org/2000/svg" viewBox="0 0 2000 2000"><defs><style>.cls-1{fill:#1d1d1b;}.cls-2{fill:#fff;}</style></defs><circle class="cls-1" cx="1000" cy="1000" r="963.54"/><path class="cls-2" d="M837.59,887.65s-13.16-48.2-73.89-32.53C763.7,855.12,755.66,937.06,837.59,887.65Z"/><path class="cls-2" d="M1000,1150.24c-50,0-88.06,17.32-60.36,67.52s60.36,53.67,60.36,53.67,32.66-3.46,60.36-53.67S1050,1150.24,1000,1150.24Z"/><path class="cls-2" d="M1162.41,887.65s13.17-48.2,73.89-32.53C1236.3,855.12,1244.34,937.06,1162.41,887.65Z"/><path class="cls-2" d="M766.8,726a21.41,21.41,0,1,1,5-40.86,34.56,34.56,0,0,1,9.24,6.58A20.09,20.09,0,0,1,766.8,726Zm-12.9-4.89h0Zm-1.3-1h0Z"/><path class="cls-2" d="M870.44,1275.06a20.09,20.09,0,0,1-18.2-11.57L712.47,965.06a20.08,20.08,0,1,1,36.37-17l139.78,298.43a20.09,20.09,0,0,1-18.18,28.61Z"/><path class="cls-2" d="M1000,1765.07a20,20,0,0,1-13.84-5.53l-83.79-79.69a690.36,690.36,0,0,1-209.13-586.94l49.62-392.14a20.11,20.11,0,0,1,8.48-14L988.56,522.31a20.08,20.08,0,0,1,22.88,0l237.22,164.48a20.11,20.11,0,0,1,8.48,14l49.62,392.14a690.36,690.36,0,0,1-209.13,586.94l-83.79,79.69A20,20,0,0,1,1000,1765.07ZM781.59,714.69,733.08,1098c-25.84,204.25,47.79,410.9,197,552.8l70,66.53,70-66.53c149.18-141.9,222.81-348.55,197-552.8l-48.51-383.26L1000,563.25Z"/><path class="cls-2" d="M1233.2,726A20.09,20.09,0,0,1,1219,691.7a34.54,34.54,0,0,1,9.23-6.57,20.7,20.7,0,1,1,5,40.86Z"/><path class="cls-2" d="M1129.56,1275.06a20.09,20.09,0,0,1-18.18-28.61L1251.16,948a20.09,20.09,0,0,1,36.38,17l-139.78,298.43A20.09,20.09,0,0,1,1129.56,1275.06Z"/><path class="cls-2" d="M1000.15,1343.74h-.3a17.24,17.24,0,0,1-6.68-1.34l-70.24-21.09c-39.61-12.07-67.23-51.56-67.23-96.06v-75.11q0-21.54,0-41.81c.12-87.13.22-156-5.15-211.93-.15-1.53-.25-3-.34-4.25,0-.11,0-.22,0-.34l-.63-5.2c-.06-.4-.1-.81-.14-1.22l-1.33-11.09c-.12-.8-.24-1.61-.37-2.42a21.42,21.42,0,0,1-.23-2.4c-11-58.3-46.53-109.39-79.85-153.49-6.5-8.6-5.31-21.25,2.66-28.26S790,682,796.53,690.61C838.37,746,883.39,811.84,887.86,893c0,.67,0,1.33,0,2,5.32,57.53,5.22,126.5,5.09,213.45q0,20.25,0,41.75v75.11c0,26.6,16.47,50.2,40.05,57.39l67,20.12,67.08-20.14c23.52-7.17,40-30.77,40-57.37v-75.11q0-21.51,0-41.74c-.12-87-.22-155.92,5.09-213.45,0-.66,0-1.32,0-2,4.47-81.12,49.49-147,91.33-202.35,6.5-8.6,18.22-9.89,26.19-2.88s9.16,19.66,2.66,28.26c-33.32,44.1-68.84,95.19-79.85,153.49a21.24,21.24,0,0,1-.23,2.39c-.13.82-.25,1.64-.38,2.44l-1.32,11.08c0,.41-.08.82-.14,1.22l-.62,5.19,0,.35c-.09,1.28-.18,2.72-.34,4.26-5.37,56-5.27,124.8-5.15,211.93q0,20.28,0,41.8v75.11c0,44.5-27.62,84-67.17,96l-70.3,21.11A17.24,17.24,0,0,1,1000.15,1343.74Z"/><path class="cls-2" d="M1594.6,936.28a635.07,635.07,0,0,1-12.76,127c-.18,1-.38,2-.6,3-3.39,13.24-15.08,23-29,23a30,30,0,0,1-28-19.91c-.27-.88-.55-1.74-.84-2.6C1449.81,841.13,1243.27,678.65,1000,678.65S550.3,841,476.62,1066.58c-.32,1-.63,2-.93,2.93a30,30,0,0,1-28,19.78c-13.89,0-25.58-9.76-29-23-.22-1-.42-2-.6-3a635.07,635.07,0,0,1-12.76-127c0-339.19,266.21-614.16,594.6-614.16S1594.6,597.09,1594.6,936.28Z"/><path class="cls-2" d="M410.17,715.57A143.4,143.4,0,0,1,440.25,700c.87-2.18,1.74-4.35,2.63-6.52q8-19.5,17.28-38.46c-26.22,4.26-51.13,12.71-72.69,27.46a255.63,255.63,0,0,0-92.55,115.05c1.54-134.15,66.81-264.6,184.13-344.86,76-51.86,163.31-76.48,249.81-74.35q17.6-9.12,35.69-17,18.63-8.13,37.64-14.93a462.81,462.81,0,0,0-345.8,73.17c-193,132-257.36,388-149.76,595.49a23.6,23.6,0,0,0,19.12,12.11,20.09,20.09,0,0,0,17.52-29.87C289,900,317.8,778.93,410.17,715.57Z"/><path class="cls-2" d="M1118.07,368.44A462.23,462.23,0,0,0,1000,433.85a464.31,464.31,0,0,0-178.47-83.57,577.94,577.94,0,0,0-72.33,29c83.7,6.13,165.76,37.39,235.14,93.35A20.1,20.1,0,0,0,997,477.07h6.1a20.1,20.1,0,0,0,12.61-4.45c69.38-56,151.44-87.21,235.14-93.35a577.94,577.94,0,0,0-72.33-29A466.19,466.19,0,0,0,1118.07,368.44Z"/><path class="cls-2" d="M575.07,656.36c-33.07-4.45-68.82-6.94-102.92-3q-10.47,20.76-19.41,42.43c81-23.49,188.35,12,254.64,69.47q17.5-11.31,35.85-21.29C698.65,702.84,628.32,663.52,575.07,656.36Z"/><path class="cls-2" d="M1424.93,657c-53.08,7.13-123.12,46.23-167.72,87.17q18.33,10,35.82,21.32c66.41-57.34,173.63-92.63,254.53-69q-8.91-21.68-19.37-42.48C1494,650,1458.11,652.53,1424.93,657Z"/><path class="cls-2" d="M1543.59,419.44a463.82,463.82,0,0,0-345.78-73.15q19,6.81,37.64,14.93,18.08,7.9,35.69,17c86.5-2.13,173.79,22.48,249.79,74.34,117.52,80.39,182.82,211.14,184.16,345.52a255.62,255.62,0,0,0-92.56-115.06c-21.47-14.69-46.26-23.14-72.36-27.41q9.09,18.62,16.95,37.77,1.49,3.63,2.93,7.27a143.55,143.55,0,0,1,29.78,15.5c92.37,63.37,121.14,184.45,66.9,281.63a20.08,20.08,0,0,0,34.84,20,21,21,0,0,0,1.8-2.84C1801,807.47,1736.59,551.47,1543.59,419.44Z"/><path class="cls-2" d="M750.82,751.19Q732.54,761,715,772.12a228.73,228.73,0,0,1,18.06,19,20.08,20.08,0,1,0,30.69-25.91C759.87,760.55,755.52,755.87,750.82,751.19Z"/><path class="cls-2" d="M1249.6,751.41c-4.86,4.82-9.35,9.64-13.38,14.41a20.08,20.08,0,0,0,30.69,25.91,227.43,227.43,0,0,1,18.47-19.35Q1267.89,761.21,1249.6,751.41Z"/></svg>